<!DOCTYPE svg PUBLIC "-//W3C//DTD SVG 1.1//EN" "http://www.w3.org/Graphics/SVG/1.1/DTD/svg11.dtd">

<!-- Uploaded to: SVG Repo, www.svgrepo.com, Transformed by: SVG Repo Mixer Tools -->
<svg fill="#ffffff" width="32px" height="32px" viewBox="0 0 32 32" id="Outlined" xmlns="http://www.w3.org/2000/svg">

<g id="SVGRepo_bgCarrier" stroke-width="0"/>

<g id="SVGRepo_tracerCarrier" stroke-linecap="round" stroke-linejoin="round"/>

<g id="SVGRepo_iconCarrier"> <title/> <g id="Fill"> <rect height="12" width="2" x="15" y="12"/> <rect height="12" width="2" x="19" y="12"/> <rect height="12" width="2" x="11" y="12"/> <path d="M20,6V5a3,3,0,0,0-3-3H15a3,3,0,0,0-3,3V6H4V8H6V27a3,3,0,0,0,3,3H23a3,3,0,0,0,3-3V8h2V6ZM14,5a1,1,0,0,1,1-1h2a1,1,0,0,1,1,1V6H14ZM24,27a1,1,0,0,1-1,1H9a1,1,0,0,1-1-1V8H24Z"/> </g> </g>

</svg>